<?xml version="1.0" encoding="utf-8"?>
<!-- Generator: Adobe Illustrator 16.0.0, SVG Export Plug-In . SVG Version: 6.00 Build 0)  -->
<!DOCTYPE svg PUBLIC "-//W3C//DTD SVG 1.1//EN" "http://www.w3.org/Graphics/SVG/1.1/DTD/svg11.dtd">
<svg version="1.1" id="Icon" xmlns="http://www.w3.org/2000/svg" xmlns:xlink="http://www.w3.org/1999/xlink" x="0px" y="0px"
	 width="200px" height="200px" viewBox="0 0 200 200" enable-background="new 0 0 200 200" xml:space="preserve">
<g id="Work">
	<g id="Satchel_6_">
		<path fill="#E96650" d="M78.953,43.873v-3.508c0-3.871,3.151-7.016,7.016-7.016h28.063c3.87,0,7.016,3.145,7.016,7.016v3.508
			h7.017v-3.508c0-7.749-6.282-14.032-14.031-14.032H85.968c-7.749,0-14.032,6.283-14.032,14.032v3.508H78.953z"/>
		<path fill="#E96650" d="M15.81,47.381v56.127h7.016v70.158h154.348v-70.158h7.016V47.381H15.81z M170.158,166.65H29.842v-63.144
			h28.063v14.031h7.016v-14.031h70.157v14.031h7.018v-14.031h28.062V166.65z M177.174,96.492h-35.078V82.46h-7.018v14.032H64.921
			V82.46h-7.016v14.032h-35.08V54.397h154.348L177.174,96.492L177.174,96.492z"/>
	</g>
</g>
</svg>
